<svg xmlns="http://www.w3.org/2000/svg" width="17" height="17" viewBox="0 0 17 17">
  <path id="heart-outlined" d="M8.5,17a.936.936,0,0,1-.657-.278c-.687-.675-1.349-1.309-1.933-1.869l0,0A38.11,38.11,0,0,1,1.686,10.4,7.613,7.613,0,0,1,0,5.743,6.418,6.418,0,0,1,1.349,1.664,4.355,4.355,0,0,1,4.749,0,3.986,3.986,0,0,1,7.42,1.036,5.9,5.9,0,0,1,8.5,2.3,5.9,5.9,0,0,1,9.58,1.036,3.986,3.986,0,0,1,12.251,0a4.355,4.355,0,0,1,3.4,1.664A6.418,6.418,0,0,1,17,5.743,7.612,7.612,0,0,1,15.314,10.4a38.107,38.107,0,0,1-4.22,4.453c-.585.56-1.248,1.2-1.937,1.872A.937.937,0,0,1,8.5,17ZM4.749,1.119a3.416,3.416,0,0,0-2.668,1.3A5.224,5.224,0,0,0,1,5.743,6.4,6.4,0,0,0,2.453,9.684,37.49,37.49,0,0,0,6.553,14l0,0c.586.562,1.251,1.2,1.943,1.878.7-.681,1.362-1.319,1.949-1.882a37.5,37.5,0,0,0,4.1-4.315A6.4,6.4,0,0,0,16,5.743a5.224,5.224,0,0,0-1.085-3.32,3.416,3.416,0,0,0-2.668-1.3,3.079,3.079,0,0,0-2.062.8A5.316,5.316,0,0,0,9.04,3.416a.6.6,0,0,1-1.08,0A5.311,5.311,0,0,0,6.811,1.922a3.079,3.079,0,0,0-2.062-.8Zm0,0" transform="translate(0)"/>
</svg>
