<svg xmlns="http://www.w3.org/2000/svg" width="17" height="17" viewBox="0 0 17 17">
  <g id="user" transform="translate(-0.001)">
    <g id="Group_37" data-name="Group 37" transform="translate(0.001)">
      <path id="Path_18" data-name="Path 18" d="M8.5,0A8.5,8.5,0,1,0,17,8.5,8.5,8.5,0,0,0,8.5,0Zm.026,12.51H4.844c0-2.655,2.332-2.655,2.849-3.349l.059-.317a2.538,2.538,0,0,1-1.24-2.3A2.275,2.275,0,0,1,8.5,4.07a2.275,2.275,0,0,1,1.988,2.479A2.546,2.546,0,0,1,9.268,8.836l.067.36c.568.661,2.822.7,2.822,3.314Z" transform="translate(-0.001)" fill="#cfcfcf"/>
    </g>
  </g>
</svg>
