<svg xmlns="http://www.w3.org/2000/svg" width="147" height="35.233" viewBox="0 0 147 35.233">
  <g id="Group_88" data-name="Group 88" transform="translate(-34 -19.767)">
    <text id="moja_kuhinjica" data-name="moja kuhinjica" transform="translate(78 51)" fill="#cfcfcf" font-size="16" font-family="Roboto-Regular, Roboto"><tspan x="0" y="0">moja kuhinjica</tspan></text>
    <g id="icon" transform="translate(34 19.766)">
      <g id="b103_soup">
        <path id="Path_28" data-name="Path 28" d="M26.776,12.687H19.25a1.232,1.232,0,1,0,0-2.464H16.172a1.232,1.232,0,1,0,0,2.464H8.645A4.554,4.554,0,0,0,4.48,16.562H30.944A4.557,4.557,0,0,0,26.776,12.687Z" fill="#f2aa01"/>
        <path id="Path_29" data-name="Path 29" d="M31,18.677v-.352H0v1.762H4.417V31.005a4.228,4.228,0,0,0,4.228,4.229H26.777a4.227,4.227,0,0,0,4.229-4.229V20.439h4.229V18.677Z" fill="#f2aa01"/>
        <path id="Path_30" data-name="Path 30" d="M11.24,4.235a6.044,6.044,0,0,0,.391.465l.341.342c.216.217.417.434.577.629a2.865,2.865,0,0,1,.195.268.522.522,0,0,1,.1.223.526.526,0,0,1-.133.348,2.114,2.114,0,0,1-.387.367,1.245,1.245,0,0,0,.605.07,1.066,1.066,0,0,0,.648-.326,1.282,1.282,0,0,0,.321-.775,2.149,2.149,0,0,0-.083-.734,3.861,3.861,0,0,0-.545-1.119c-.109-.16-.244-.322-.34-.447s-.185-.229-.266-.344a3.3,3.3,0,0,1-.647-1.359A3.4,3.4,0,0,1,12.324,0,2.274,2.274,0,0,0,10.643,1.71a2.733,2.733,0,0,0,.032,1.363A3.7,3.7,0,0,0,11.24,4.235Z" fill="#f2aa01"/>
        <path id="Path_31" data-name="Path 31" d="M15.809,4.235c.123.162.255.318.391.465l.34.342c.216.217.416.434.58.629.077.1.143.191.193.268a.475.475,0,0,1,.1.223.518.518,0,0,1-.131.348,2.037,2.037,0,0,1-.389.367,1.257,1.257,0,0,0,.607.07,1.063,1.063,0,0,0,.648-.326,1.277,1.277,0,0,0,.322-.775,2.15,2.15,0,0,0-.082-.734,3.917,3.917,0,0,0-.548-1.119c-.107-.16-.243-.322-.339-.447s-.185-.229-.264-.344a3.287,3.287,0,0,1-.649-1.359A3.4,3.4,0,0,1,16.89,0a2.271,2.271,0,0,0-1.678,1.709,2.733,2.733,0,0,0,.031,1.363A3.687,3.687,0,0,0,15.809,4.235Z" fill="#f2aa01"/>
        <path id="Path_32" data-name="Path 32" d="M19.972,4.235a5.814,5.814,0,0,0,.39.465l.341.342c.216.217.415.434.577.629a2.865,2.865,0,0,1,.195.268.547.547,0,0,1,.1.223.521.521,0,0,1-.133.348,2.037,2.037,0,0,1-.389.367,1.252,1.252,0,0,0,.6.07,1.07,1.07,0,0,0,.65-.326,1.28,1.28,0,0,0,.32-.775,2.126,2.126,0,0,0-.082-.734A3.836,3.836,0,0,0,22,3.993c-.109-.16-.244-.322-.34-.447s-.186-.229-.266-.344a3.28,3.28,0,0,1-.646-1.359A3.4,3.4,0,0,1,21.053,0,2.27,2.27,0,0,0,19.374,1.71a2.745,2.745,0,0,0,.032,1.363A3.635,3.635,0,0,0,19.972,4.235Z" fill="#f2aa01"/>
      </g>
    </g>
  </g>
</svg>
